<?xml version="1.0" standalone="no"?>
<!DOCTYPE svg PUBLIC "-//W3C//DTD SVG 1.1//EN" "http://www.w3.org/Graphics/SVG/1.1/DTD/svg11.dtd" >
<svg xmlns="http://www.w3.org/2000/svg">
<metadata>
Created by FontForge 20120731 at Thu Mar  9 16:03:46 2017
 By admin
</metadata>
<defs>
<font id="iconfont" horiz-adv-x="1024" >
  <font-face 
    font-family="iconfont"
    font-weight="500"
    font-stretch="normal"
    units-per-em="1024"
    panose-1="2 0 6 3 0 0 0 0 0 0"
    ascent="896"
    descent="-128"
    x-height="792"
    bbox="-0.373135 -128 1092 896.5"
    underline-thickness="0"
    underline-position="0"
    unicode-range="U+0078-E663"
  />
<missing-glyph 
 />
    <glyph glyph-name=".notdef" 
 />
    <glyph glyph-name=".notdef" 
 />
    <glyph glyph-name=".null" horiz-adv-x="0" 
 />
    <glyph glyph-name="nonmarkingreturn" horiz-adv-x="341" 
 />
    <glyph glyph-name="x" unicode="x" horiz-adv-x="1001" 
d="M281 543q-27 -1 -53 -1h-83q-18 0 -36.5 -6t-32.5 -18.5t-23 -32t-9 -45.5v-76h912v41q0 16 -0.5 30t-0.5 18q0 13 -5 29t-17 29.5t-31.5 22.5t-49.5 9h-133v-97h-438v97zM955 310v-52q0 -23 0.5 -52t0.5 -58t-10.5 -47.5t-26 -30t-33 -16t-31.5 -4.5q-14 -1 -29.5 -0.5
t-29.5 0.5h-32l-45 128h-439l-44 -128h-29h-34q-20 0 -45 1q-25 0 -41 9.5t-25.5 23t-13.5 29.5t-4 30v167h911zM163 247q-12 0 -21 -8.5t-9 -21.5t9 -21.5t21 -8.5q13 0 22 8.5t9 21.5t-9 21.5t-22 8.5zM316 123q-8 -26 -14 -48q-5 -19 -10.5 -37t-7.5 -25t-3 -15t1 -14.5
t9.5 -10.5t21.5 -4h37h67h81h80h64h36q23 0 34 12t2 38q-5 13 -9.5 30.5t-9.5 34.5q-5 19 -11 39h-368zM336 498v228q0 11 2.5 23t10 21.5t20.5 15.5t34 6h188q31 0 51.5 -14.5t20.5 -52.5v-227h-327z" />
    <glyph glyph-name="zuixin" unicode="&#xe601;" 
d="M10 -128l-4 1024h936v-1024l-468 246zM473 238l363 -191v743h-723l3 -742zM199 591h47l47 -91l19 -42h1q-6 49 -6 70v63h43v-190h-46l-47 92l-19 42h-1q6 -61 6 -71v-63h-44v190zM394 591h121v-37h-75v-36h64v-38h-64v-40h78v-39h-124v190zM537 591h46l12 -86l8 -61h1
q7 36 11 61l20 86h38l20 -86q2 -11 5.5 -31.5t5.5 -29.5h1q2 12 4.5 34.5t3.5 26.5l12 86h43l-33 -190h-57l-18 83q-4 22 -7 44h-1q-6 -35 -8 -44l-16 -83h-57z" />
    <glyph glyph-name="celve" unicode="&#xe602;" 
d="M512 -128q-104 0 -199 40.5t-163.5 109t-109 163.5t-40.5 199t40.5 199t109 163.5t163.5 109t199 40.5t199 -40.5t163.5 -109t109 -163.5t40.5 -199t-40.5 -199t-109 -163.5t-163.5 -109t-199 -40.5zM512 789q-110 0 -203 -54.5t-147.5 -147.5t-54.5 -203t54.5 -203
t147.5 -147.5t203 -54.5t203 54.5t147.5 147.5t54.5 203t-54.5 203t-147.5 147.5t-203 54.5zM431 434l-112 -290l259 173l127 307zM505 343q-13 0 -22.5 9t-9.5 22.5t9.5 22.5t22.5 9t22.5 -9t9.5 -22v0q0 -14 -9.5 -23t-22.5 -9v0z" />
    <glyph glyph-name="biantaifeisu" unicode="&#xe603;" 
d="M757 -128l-172 107l-186 10l-183 -116l-6 209l116 117q-10 34 -22 68l-10 29q-2 7 -7 22q-2 9 -3 10q-5 14 -9 29l-6 16q-5 19 -7 26l-2 10q-7 26 -10 52q-7 92 29 171q56 123 161 227l38 37l38 -37q122 -118 170 -221q20 -44 26 -77q7 -30 5 -85q-1 -25 -12 -67
q-9 -32 -26 -86q-11 -35 -19 -64q-13 -47 -19 -70l107 -106zM395 98h3l191 -10l-35 34q-10 11 -17 28t-7 31v9q2 17 25 98q5 21 20 68q16 49 24 81q8 30 9 44q1 40 -3 57q-6 29 -18 55q-31 68 -108 149q-26 -29 -55.5 -74.5t-45.5 -81.5q-24 -53 -19 -116q1 -8 7 -37l2 -10
q1 -2 5 -17l6 -17q5 -18 6 -21q3 -6 6 -18q4 -11 6 -19l10 -29q20 -57 29 -91q11 -45 -21 -78l-37 -36q8 1 17 1zM443 588q-15 -13 -18.5 -33t3.5 -37.5t23 -29.5t35 -12q21 -1 37.5 10.5t23.5 29t4.5 37.5t-17.5 34q-19 19 -46 19q-26 0 -45 -18z" />
    <glyph glyph-name="feihang" unicode="&#xe604;" horiz-adv-x="1095" 
d="M697 -128v297l-179 -105zM187 -73l-187 969l1092 -484zM151 706l118 -608l567 304zM115 841l563 -569l-79 -79l-563 569z" />
    <glyph glyph-name="dujia" unicode="&#xe605;" horiz-adv-x="1026" 
d="M816 7h-619l-125 518l297 -123l147 260l140 -249l293 120zM270 100h473l71 277l-198 -81l-100 177l-107 -188l-204 84zM516 729zM431 729q0 -35 25 -59.5t60 -24.5t60 24.5t25 59.5t-25 60t-60 25t-60 -25t-25 -60zM49 563zM0 563q0 -20 14.5 -34.5t35 -14.5t34.5 14.5
t14 34.5t-14 34.5t-34.5 14.5t-35 -14.5t-14.5 -34.5v0zM977 563zM928 563q0 -20 14.5 -34.5t35 -14.5t34.5 14.5t14 34.5t-14 34.5t-34.5 14.5t-35 -14.5t-14.5 -34.5z" />
    <glyph glyph-name="danji" unicode="&#xe606;" 
d="M301 597h44v-179h-44v179zM233 529h180v-43h-180v43zM655 568zM621 568q0 -14 10 -24.5t24 -10.5t24.5 10.5t10.5 24.5t-10.5 24t-24.5 10t-24 -10t-10 -24zM775 568zM741 568q0 -14 10 -24t24 -10t24 10t10 24t-10 24t-24 10t-24 -10t-10 -24zM611 453zM577 453
q0 -14 10 -24t24 -10t24.5 10t10.5 24t-10.5 24t-24.5 10t-24 -10t-10 -24zM731 453zM697 453q0 -14 10 -24t24 -10t24 10t10 24t-10 24t-24 10t-24 -10t-10 -24zM142 90q-50 0 -85 36q-62 64 -57 242q2 63 18 147q12 66 43 124.5t72 95.5q26 22 63 40.5t70 20.5
q45 3 94 -11.5t87 -41.5l8 -6l1 -1h79q3 4 6 6q31 24 81.5 41.5t89.5 18.5q63 0 114 -30q62 -36 107 -100.5t66 -145.5q22 -87 25 -149q7 -141 -40 -218q-42 -69 -113 -69q-72 0 -141 72q-32 34 -62 69q-25 28 -38 41q-25 1 -50 1h-10q-79 0 -197 -2q-12 -12 -30 -31l-9 -9
q-66 -73 -97 -100.5t-51 -33.5q-22 -7 -44 -7zM282 700q-5 0 -9 -1q-14 -1 -37 -12t-39 -25q-29 -25 -51.5 -70t-32.5 -95q-14 -76 -16 -132q-3 -137 30 -172q9 -9 29 -4q23 15 107 107l9 10q48 52 67 58l8 3h7h8t20.5 0.5t29.5 1t37 0.5t40 0.5t41.5 0.5h39.5q88 0 104 -7
l9 -4l6 -7q21 -22 51 -57q40 -44 61 -66q39 -42 70 -42v0q16 0 30 23q32 51 26 162q-3 52 -22 130q-16 62 -49.5 111t-78.5 75q-29 17 -62 17h-3q-25 -1 -57 -12t-52 -26l-2 -2q-26 -26 -49 -26h-109q-21 0 -49 23l-3 2q-21 14 -53 24.5t-56 11.5z" />
    <glyph glyph-name="gedouquanji" unicode="&#xe607;" 
d="M224 9h594v-134h-594v134zM972 44h-938v508h60v11q-2 59 3 91q6 38 28.5 77t53.5 65q45 38 104.5 61.5t116 30t117 8.5t106.5 -4q85 -7 156 -37t119 -80q46 -47 60.5 -112.5t13.5 -144.5v-127v-81v-132v-134zM141 152h724v25v133v81q-1 92 0 128q1 135 -44 181
q-71 74 -206 85q-260 20 -366 -71q-16 -13 -29.5 -36t-16.5 -41q-3 -22 -2 -71v-14h424v-321h-337v107h230v106h-377v-292z" />
    <glyph glyph-name="gengduo" unicode="&#xe608;" 
d="M487 409h-487v487h487v-487v0zM107 516h273v273h-273v-273zM487 -125h-487v487h487v-487v0zM107 -17h273v272h-273v-272zM787 879l228 -235l-234 -228l-228 234zM1019 -128h-487v487h487v-487zM639 -21h273v273h-273v-273z" />
    <glyph glyph-name="jiaosebanyan" unicode="&#xe609;" 
d="M261 576q-6 -1 -15.5 -0.5t-36.5 4.5t-49.5 12.5t-46 28.5t-34.5 48t-7.5 75t27.5 106q-5 -5 -13 -13.5t-27.5 -37t-33 -58t-21.5 -72.5t-1 -84t37 -90t84 -93zM762 584q6 -1 15.5 -0.5t36.5 4.5t49.5 12.5t46 28.5t34.5 48t7.5 75t-27.5 106q5 -5 13 -14t27.5 -37
t33 -57.5t21.5 -72.5t1 -84t-37 -90t-84 -93zM955 170h-877v52q0 89 35 170.5t93.5 140t140 93.5t170.5 35t170 -35t140 -93.5t93.5 -140t34.5 -170.5v-52zM187 275h659q-19 116 -115.5 198.5t-213.5 82.5q-118 0 -214.5 -82.5t-115.5 -198.5zM79 136h877v-105h-877v105z
" />
    <glyph glyph-name="jingxuan" unicode="&#xe60a;" 
d="M512 607l61 -123l136 -20l-98 -96l23 -135l-121 63l-122 -64l23 135l-99 96l136 20zM512 -128q-104 0 -199 40.5t-163.5 109t-109 163.5t-40.5 199t40.5 199t109 163.5t163.5 109t199 40.5t199 -40.5t163.5 -109t109 -163.5t40.5 -199t-40.5 -199t-109 -163.5
t-163.5 -109t-199 -40.5zM512 788q-110 0 -203 -54t-147 -147t-54 -203t54 -203t147 -147t203 -54t203 54t147 147t54 203t-54 203t-147 147t-203 54z" />
    <glyph glyph-name="qiapai" unicode="&#xe60b;" horiz-adv-x="1030" 
d="M711 -67h-711v963h711v-963zM101 35h509v760h-509v-760zM915 600l92 -43l-293 -623l-92 43zM713 759l318 -155l-45 -91l-318 155zM355 550l45 -88l98 -13l-70 -70l18 -98l-89 45l-88 -47l16 98l-72 68l98 16z" />
    <glyph glyph-name="kaifu" unicode="&#xe60c;" 
d="M511 -126h-511v511q0 104 40.5 198.5t109 163t163 109t198.5 40.5t198.5 -40.5t163 -109t109 -163t40.5 -198.5t-40.5 -198.5t-109 -163t-163 -109t-198.5 -40.5zM116 -10h395q107 0 198 53t144 144t53 198t-53 198t-144 144t-198 53t-198 -53t-144 -144t-53 -198v-395z
M241 446v30h251v-30h-50v-76h62v-30h-62v-120h-33v120h-81q1 -84 -72 -125q-11 14 -24 26q66 31 63 99h-68v30h68v76h-54zM328 446v-76h81v76h-81zM541 217q-9 7 -16 16l-6 5q20 29 18 111v130h87v-228q0 -26 -27 -29q-11 -1 -29 -1q0 1 -1 8t-2 13q-1 3 -1 7q4 -1 19 -1
q15 -2 14 11v50h-34q-2 -56 -22 -92zM564 454v-47h33v47h-33zM564 343v-10h33v49h-33v-39zM785 219q-28 16 -54 34q-18 -14 -45 -33l-13 18v-20h-29v260h139q0 -8 -2 -22q0 -16 -1 -23q-1 -37 -39 -37h-40q-2 13 -5 24h32q23 -1 25 17v16h-80v-75h112v-29q-16 -48 -36 -74
q21 -17 51 -30q-1 -2 -4.5 -7.5t-5.5 -9.5q-3 -4 -5 -9zM673 248q22 11 39 27q-19 27 -33 68l16 8h-22v-103zM757 351h-54q13 -38 28 -56q17 24 26 56z" />
    <glyph glyph-name="liwuheji" unicode="&#xe60d;" horiz-adv-x="1030" 
d="M583 613h-134l8 49q14 93 59 160q20 30 60.5 52t77.5 22h1q71 0 120 -49q45 -47 44 -115q-1 -34 -11 -58t-22.5 -35.5t-33 -17.5t-31.5 -7t-27 -1l-34 1h-10q-27 -1 -67 -1zM551 697h32q40 0 66 1h11l34 -1q30 0 35.5 5t5.5 32q1 32 -20 54q-10 10 -27.5 17t-31.5 7h-1
q-44 0 -69 -37q-21 -31 -35 -78zM394 613q-41 0 -67 1h-10l-34 -1q-16 0 -27 1t-31.5 7t-33 17.5t-23 35.5t-10.5 58v5q0 26 13 58.5t31 51.5q21 20 56 34.5t64 14.5v0h1q37 0 77.5 -21.5t60.5 -52.5q45 -67 60 -160l7 -49h-134zM317 698h11q31 -1 66 -1h32q-12 42 -35 78
q-10 15 -30 26t-38 11h-1q-36 0 -60 -24q-8 -9 -14 -24t-6 -27v-3q0 -27 5.5 -32t35.5 -5v0zM934 -128h-885v573h885v-573zM161 -16h661v349h-661v-349zM969 332h-969v315h969v-315zM112 444h745v91h-745v-91zM445 655h98v-783h-98v783z" />
    <glyph glyph-name="moni" unicode="&#xe60e;" 
d="M1024 648q0 -55 -37.5 -94t-90.5 -39t-90.5 39t-37.5 94q0 -55 -37.5 -94t-90.5 -39t-90.5 39t-37.5 94q0 -55 -37.5 -94t-90.5 -39t-90.5 39t-37.5 94q0 -55 -37.5 -94t-90.5 -39t-90.5 39t-37.5 94l90 248h844zM937 -49h-847v529h109v-420h629v420h109v-529z" />
    <glyph glyph-name="nansheng" unicode="&#xe60f;" 
d="M578 614h-200l-53 282h318zM446 696h67l27 118h-116zM495 -124l-262 219l142 482h206l149 -483zM359 133l132 -111l114 106l-105 340h-43zM607 578l122 -342h80v79z" />
    <glyph glyph-name="nvsheng" unicode="&#xe610;" 
d="M210 896h87v-209h-87v209zM644 896h87v-209h-87v209zM907 -125h-883l73 93q6 8 13.5 19.5t24.5 45t29 69t19.5 88.5t4 106.5t-24 120.5t-59.5 132l-25 44l198 161l37 -45q3 -4 9 -10.5t24 -22t36.5 -27.5t45.5 -21.5t52 -9.5q77 0 148 90l38 49l187 -168l-28 -42
q-5 -8 -12 -20.5t-21.5 -48t-24.5 -72.5t-15.5 -91t0.5 -107t29 -117.5t64 -125.5zM244 -9h454q-35 72 -50.5 148.5t-14 137t14 121t26.5 98t31 71.5l-26 23q-90 -89 -198 -89q-111 0 -216 93l-36 -29q36 -71 55 -144t21 -132t-7 -118t-22 -100t-32 -80z" />
    <glyph glyph-name="pojiexiugai" unicode="&#xe611;" 
d="M618 668l223 -138l-46 -74l-223 137zM738 867l222 -138l-46 -74l-222 137zM309 -128q-80 0 -149 43q-56 34 -95.5 105.5t-39.5 136.5q0 34 12 78t30 72q34 56 105 95.5t137 39.5h1q80 0 150 -42q41 -26 78.5 -77.5t48.5 -99.5q8 -33 8 -66.5t-12.5 -77t-30.5 -72.5
q-34 -56 -105 -95.5t-136 -39.5h-2zM310 325q-44 0 -82 -21t-62 -59q-10 -16 -17 -42t-7 -46q0 -69 49 -118.5t118 -49.5q45 0 83 21t61 59q10 17 17.5 42.5t7.5 45.5t-5 39q-6 28 -28 58.5t-47 45.5q-17 11 -42.5 18t-45.5 7zM691 896l99 -62l-290 -469l-99 61z" />
    <glyph glyph-name="qipai" unicode="&#xe612;" 
d="M656 88q-105 0 -186 72l-18 16l-18 -16q-81 -72 -186 -72h-14q-39 2 -86.5 22.5t-74.5 48.5q-73 71 -73 164q0 118 103 243q32 39 82 88.5t88 84.5t114 102l62 55l2 -2l2 2l64 -55q76 -67 113.5 -102t87.5 -84.5t82 -88.5q104 -125 104 -243q0 -93 -73 -164
q-27 -28 -74.5 -48.5t-87.5 -22.5h-13zM452 337l41 -50q9 -14 47 -47q54 -48 125 -45q22 0 49 12t43 28q41 40 41 88q0 80 -80 176q-29 35 -75 81t-83.5 80t-107.5 97q-70 -63 -107.5 -97t-83.5 -80t-75 -81q-80 -96 -80 -176q0 -48 41 -88q39 -38 92 -40q71 -3 125 45
q26 23 47 47v0zM289 -128l163 391l163 -391h-326z" />
    <glyph glyph-name="sheji" unicode="&#xe613;" 
d="M511.5 -46q-113.5 0 -210 56.5t-152.5 153t-56 210t56 209.5t152.5 152.5t210 56.5t210 -56.5t152.5 -152.5t56 -209.5t-56 -210t-152.5 -153t-210 -56.5zM511.5 703q-89.5 0 -165.5 -44t-120 -120t-44 -165.5t44 -166t120 -120.5t165.5 -44t165.5 44t120.5 120.5
t44.5 166t-44.5 165.5t-120.5 120t-165.5 44zM512 373zM436 373.5q0 -31.5 22 -54t53.5 -22.5t54 22.5t22.5 54t-22.5 53.5t-54 22t-53.5 -22t-22 -53.5zM480 890h66v-259h-66v259zM483 131l66 -1l-3 -258l-66 1zM765 413h258v-66h-258v66zM0 413h258v-66h-258v66z" />
    <glyph glyph-name="tafang" unicode="&#xe614;" 
d="M782 616h-525v280h81v-200h363v200h81v-280zM480 896h80v-225h-80v225zM917 -128h-791l179 698h423zM265 -21h512l-131 484h-257z" />
    <glyph glyph-name="saichejingsu" unicode="&#xe615;" 
d="M252 805h163v-160h-163v160zM415 644h163v-160h-163v160zM738 644h163v-160h-163v160zM577 804h163v-160h-163v160zM252 484h163v-160h-163v160zM990 230h-843v663h843v-663zM255 338h627v448h-627v-448zM8 896h107v-1022h-107v1022zM577 486h163v-160h-163v160z" />
    <glyph glyph-name="wangluoyouxi" unicode="&#xe616;" horiz-adv-x="1025" 
d="M248 546h65v-241h-65v241zM159 458h242v-65h-242v65zM648 490zM603 490.5q0 -18.5 13.5 -32t32 -13.5t32 13.5t13.5 32t-13.5 32t-32 13.5t-32 -13.5t-13.5 -32zM807 490zM762 490.5q0 -18.5 13 -32t32 -13.5t32.5 13.5t13.5 32t-13.5 32t-32.5 13.5t-32 -13.5t-13 -32z
M590 338zM545 338q0 -19 13 -32t32 -13t32 13t13 32t-13 32.5t-32 13.5t-32 -13.5t-13 -32.5zM749 338zM704 338q0 -19 13 -32t32 -13t32 13t13 32t-13 32.5t-32 13.5t-32 -13.5t-13 -32.5zM1026 71h-1026v709h1026v-709zM103 174h819v503h-819v-503zM405 87h215v-82h-215
v82zM260 7h506v-52h-506v52z" />
    <glyph glyph-name="xiuxianyizhi" unicode="&#xe617;" 
d="M562 322h-562v563h562v-563zM107 429h348v349h-348v-349zM562 -128h-562v562h562v-562zM107 -21h348v348h-348v-348zM1024 -128h-562v563h562v-563zM569 -21h348v349h-348v-349z" />
    <glyph glyph-name="lanqiu" unicode="&#xe618;" 
d="M1020 424q-10 127 -81.5 235t-185 171t-241.5 63q-103 0 -196.5 -40t-162 -107.5t-109 -161t-41.5 -196.5v-2.5v-1.5q0 -36 6 -79q20 -124 118 -242t217 -160q40 -14 81 -21q46 -8 87 -8q132 0 245 62t182.5 169t80.5 236q2 21 2 43q0 20 -2 40zM912 337
q-7 -61 -43.5 -133t-81.5 -114q-29 -27 -64 -49q-40 -24 -101.5 -42t-109.5 -18q-25 0 -51 4q-76 10 -160 62.5t-126 117.5q-20 30 -37.5 77t-22.5 83q-5 29 -5 59q0 1 1 22q4 67 42 147.5t88 126.5q30 27 64 48q40 24 100.5 41t106.5 17t93 -11q70 -17 145.5 -73
t110.5 -119q45 -77 52 -165q2 -21 2 -34q0 -21 -3 -47zM916 336q3 25 3 48q0 12 -1 34q-40 6 -88 30.5t-76 53.5l111 84q-20 35 -47 66l-111 -84q-12 25 -21 61.5t-9 64.5q0 30 6 59q-37 17 -77 27q-11 -45 -11 -86q0 -93 46 -175l-112 -86l-226 300q-35 -22 -66 -49
l227 -300l-107 -80q-43 42 -116.5 72t-133.5 30h-1q-1 -19 -1 -22q0 -26 5 -59q43 -1 96 -21.5t85 -49.5l-120 -91q22 -35 50 -64l123 93q41 -68 41 -145q0 -23 -4 -48q38 -13 79 -19q6 34 6 67q0 43 -16.5 100t-40.5 94l104 78l213 -281q34 22 64 49l-212 282l111 84
q38 -42 104.5 -76t122.5 -41z" />
    <glyph glyph-name="bangzhu" unicode="&#xe63a;" 
d="M512 832q-122 0 -225 -60t-163 -163t-60 -225t60 -225t163 -163t225 -60t225 60t163 163t60 225t-60 225t-163 163t-225 60zM512 0q-159 0 -271.5 112.5t-112.5 271.5t112.5 271.5t271.5 112.5t271.5 -112.5t112.5 -271.5t-112.5 -271.5t-271.5 -112.5zM512 120zM480 120
q0 -13 9.5 -22.5t22.5 -9.5t22.5 9.5t9.5 22.5t-9.5 22.5t-22.5 9.5t-22.5 -9.5t-9.5 -22.5zM704 488v0q0 80 -56 136t-136 56v0q-80 0 -136 -56t-56 -136q0 -13 9.5 -22.5t22.5 -9.5t22.5 9.5t9.5 22.5q0 53 37.5 90.5t90.5 37.5t90.5 -37.5t37.5 -90.5t-37.5 -90.5
t-90.5 -37.5q-13 0 -22.5 -9.5t-9.5 -22.5v-112q0 -13 9.5 -22.5t22.5 -9.5t22.5 9.5t9.5 22.5v83q69 11 114.5 64.5t45.5 124.5z" />
    <glyph glyph-name="gengduo1" unicode="&#xe63b;" 
d="M320 384zM272 384q0 -20 14 -34t34 -14t34 14t14 34t-14 34t-34 14t-34 -14t-14 -34zM512 384zM464 384q0 -20 14 -34t34 -14t34 14t14 34t-14 34t-34 14t-34 -14t-14 -34zM704 384zM656 384q0 -20 14 -34t34 -14t34 14t14 34t-14 34t-34 14t-34 -14t-14 -34z" />
    <glyph glyph-name="dianzan" unicode="&#xe63c;" 
d="M776 0h-608q-27 0 -45.5 19t-18.5 45v368q0 26 18.5 45t45.5 19h176q28 0 47 29t44 93q26 69 44 96q36 54 89 54q72 0 100 -49q20 -35 13 -88q-5 -38 -23 -86q-9 -24 -21 -49h219q26 0 45 -19t19 -45q0 -7 -2 -14l-79 -368v0q-5 -21 -23 -35.5t-40 -14.5v0zM168 432v-368
h608l80 368v0h-272q-13 0 -22.5 9.5t-9.5 22.5q0 9 4 16q24 43 42 88q33 87 15 119q-10 17 -45 17q-21 0 -36.5 -25.5t-37.5 -83.5q-28 -74 -49 -104q-40 -59 -101 -59h-176zM856 432zM264 464h64v-432h-64v432z" />
    <glyph glyph-name="rili" unicode="&#xe63d;" 
d="M288 576q13 0 22.5 9.5t9.5 22.5v160q0 13 -9.5 22.5t-22.5 9.5t-22.5 -9.5t-9.5 -22.5v-160q0 -13 9.5 -22.5t22.5 -9.5zM448 352h-224q-13 0 -22.5 -9.5t-9.5 -22.5t9.5 -22.5t22.5 -9.5h224q13 0 22.5 9.5t9.5 22.5t-9.5 22.5t-22.5 9.5zM800 352h-224
q-13 0 -22.5 -9.5t-9.5 -22.5t9.5 -22.5t22.5 -9.5h224q13 0 22.5 9.5t9.5 22.5t-9.5 22.5t-22.5 9.5zM448 192h-224q-13 0 -22.5 -9.5t-9.5 -22.5t9.5 -22.5t22.5 -9.5h224q13 0 22.5 9.5t9.5 22.5t-9.5 22.5t-22.5 9.5zM800 192h-224q-13 0 -22.5 -9.5t-9.5 -22.5
t9.5 -22.5t22.5 -9.5h224q13 0 22.5 9.5t9.5 22.5t-9.5 22.5t-22.5 9.5zM736 576q13 0 22.5 9.5t9.5 22.5v160q0 13 -9.5 22.5t-22.5 9.5t-22.5 -9.5t-9.5 -22.5v-160q0 -13 9.5 -22.5t22.5 -9.5zM928 736h-96q-13 0 -22.5 -9.5t-9.5 -22.5t9.5 -22.5t22.5 -9.5h64v-160
h-768v160h64q13 0 22.5 9.5t9.5 22.5t-9.5 22.5t-22.5 9.5h-96q-13 0 -22.5 -9.5t-9.5 -22.5v-704q0 -13 9.5 -22.5t22.5 -9.5h832q13 0 22.5 9.5t9.5 22.5v704q0 13 -9.5 22.5t-22.5 9.5zM128 16v432h768v-432h-768zM384 672h256q13 0 22.5 9.5t9.5 22.5t-9.5 22.5
t-22.5 9.5h-256q-13 0 -22.5 -9.5t-9.5 -22.5t9.5 -22.5t22.5 -9.5z" />
    <glyph glyph-name="libao" unicode="&#xe63e;" 
d="M864 592h-107q75 50 75 112q0 54 -33 83t-79 29q-119 0 -192 -128q-8 -15 -16 -32q-8 17 -16 32q-73 128 -192 128q-46 0 -79 -29t-33 -83q0 -62 75 -112h-107q-13 0 -22.5 -9.5t-9.5 -22.5v-576q0 -13 9.5 -22.5t22.5 -9.5h704q13 0 22.5 9.5t9.5 22.5v576
q0 13 -9.5 22.5t-22.5 9.5zM832 304h-288v224h288v-224zM584 657q55 95 136 95q20 0 33 -10q15 -11 15 -38q0 -16 -18 -35t-44 -33q-62 -35 -151 -42q12 33 29 63zM271 742q13 10 33 10q81 0 136 -95q17 -30 28 -63q-89 7 -150 42q-26 14 -44 33t-18 35q0 27 15 38v0z
M480 528v-224h-288v224h288zM192 240h288v-224h-288v224zM544 16v224h288v-224h-288z" />
    <glyph glyph-name="mima" unicode="&#xe63f;" 
d="M96 400v-432q0 -13 9.5 -22.5t22.5 -9.5h768q13 0 22.5 9.5t9.5 22.5v432q0 13 -9.5 22.5t-22.5 9.5h-768q-13 0 -22.5 -9.5t-9.5 -22.5zM864 0h-704v368h704v-368zM831 518q-2 131 -95 222.5t-224 91.5q-87 0 -161 -42.5t-116.5 -116.5t-42.5 -161v-112h64v112
q0 106 75 181t181 75t181 -75t75 -181v0q0 -13 9.5 -22.5t22.5 -9.5t22.5 9.5t9.5 22.5q0 3 -1 6z" />
    <glyph glyph-name="shuoming" unicode="&#xe640;" 
d="M512 832q-122 0 -225 -60t-163 -163t-60 -225t60 -225t163 -163t225 -60t225 60t163 163t60 225t-60 225t-163 163t-225 60zM512 0q-159 0 -271.5 112.5t-112.5 271.5t112.5 271.5t271.5 112.5t271.5 -112.5t112.5 -271.5t-112.5 -271.5t-271.5 -112.5zM512 592
q-13 0 -22.5 -9.5t-9.5 -22.5t9.5 -22.5t22.5 -9.5t22.5 9.5t9.5 22.5t-9.5 22.5t-22.5 9.5zM512 496q-13 0 -22.5 -9.5t-9.5 -22.5v-256q0 -13 9.5 -22.5t22.5 -9.5t22.5 9.5t9.5 22.5v256q0 13 -9.5 22.5t-22.5 9.5z" />
    <glyph glyph-name="tongzhi" unicode="&#xe641;" 
d="M864 96h-61q-35 40 -35 128v288q0 97 -64.5 169.5t-159.5 84.5v34q0 13 -9.5 22.5t-22.5 9.5t-22.5 -9.5t-9.5 -22.5v-34q-95 -12 -159.5 -84.5t-64.5 -169.5v-288q0 -88 -35 -128h-61q-13 0 -22.5 -9.5t-9.5 -22.5t9.5 -22.5t22.5 -9.5h320v-64q0 -13 9.5 -22.5
t22.5 -9.5t22.5 9.5t9.5 22.5v64h320q13 0 22.5 9.5t9.5 22.5t-9.5 22.5t-22.5 9.5zM296 96q24 55 24 128v288q0 80 56 136t136 56t136 -56t56 -136v-288q0 -73 24 -128v0h-432v0z" />
    <glyph glyph-name="xiaoxi" unicode="&#xe642;" 
d="M768 384v0q0 -44 -22 -97t-53 -84l45 -45q39 39 66.5 105t27.5 121t-27.5 121t-66.5 105l-45 -45q31 -31 53 -84t22 -97v0zM896 384v0q0 -66 -33 -145.5t-79 -126.5l45 -45q54 55 92.5 147.5t38.5 169.5t-38.5 169.5t-92.5 147.5l-45 -45q46 -47 79 -126.5t33 -144.5v-1z
M716 180zM693 157.5q9 -9.5 22.5 -9.5t23 9.5t9.5 23t-9.5 22.5t-23 9t-22.5 -9t-9 -22.5t9 -23zM806 90zM783.5 67.5q9.5 -9.5 22.5 -9.5t22.5 9.5t9.5 22.5t-9.5 22.5t-22.5 9.5t-22.5 -9.5t-9.5 -22.5t9.5 -22.5zM716 588zM693 565q9 -9 22.5 -9t23 9t9.5 22.5t-9.5 23
t-23 9.5t-22.5 -9.5t-9 -23t9 -22.5zM806 678zM783.5 655.5q9.5 -9.5 22.5 -9.5t22.5 9.5t9.5 22.5t-9.5 22.5t-22.5 9.5t-22.5 -9.5t-9.5 -22.5t9.5 -22.5zM544 770h-19v0q-26 0 -44 -17l-189 -177h-164q-13 0 -22.5 -9.5t-9.5 -22.5v-320q0 -13 9.5 -22.5t22.5 -9.5h164
l189 -177q18 -17 44 -17v0h19q26 0 45 18.5t19 45.5v644q0 27 -19 45.5t-45 18.5zM256 240h-96v272h96v-272zM544 62h-19l-205 192v260l205 192h19v-644z" />
    <glyph glyph-name="mimakejian" unicode="&#xe643;" 
d="M512 704q-150 0 -270.5 -86t-170.5 -223q-2 -5 -2 -11t2 -11q50 -137 170.5 -223t270.5 -86t270.5 86t170.5 223q2 5 2 11t-2 11q-50 137 -170.5 223t-270.5 86zM512 128q-127 0 -229.5 71t-147.5 185q45 114 147.5 185t229.5 71t229.5 -71t147.5 -185
q-45 -114 -147.5 -185t-229.5 -71zM512 544q-66 0 -113 -47t-47 -113t47 -113t113 -47t113 47t47 113t-47 113t-113 47zM512 288q-40 0 -68 28t-28 68t28 68t68 28t68 -28t28 -68t-28 -68t-68 -28z" />
    <glyph glyph-name="geren" unicode="&#xe644;" 
d="M512 832q-93 0 -158.5 -65.5t-65.5 -158.5t65.5 -158.5t158.5 -65.5t158.5 65.5t65.5 158.5t-65.5 158.5t-158.5 65.5zM512 448q-66 0 -113 47t-47 113t47 113t113 47t113 -47t47 -113t-47 -113t-113 -47zM512 384q159 0 271.5 -112.5t112.5 -271.5h64q0 122 -60 225
t-163 163t-225 60t-225 -60t-163 -163t-60 -225h64q0 159 112.5 271.5t271.5 112.5zM96 0zM64 0q0 -13 9.5 -22.5t22.5 -9.5t22.5 9.5t9.5 22.5t-9.5 22.5t-22.5 9.5t-22.5 -9.5t-9.5 -22.5zM928 0zM896 0q0 -13 9.5 -22.5t22.5 -9.5t22.5 9.5t9.5 22.5t-9.5 22.5t-22.5 9.5
t-22.5 -9.5t-9.5 -22.5zM512 832q-93 0 -158.5 -65.5t-65.5 -158.5t65.5 -158.5t158.5 -65.5t158.5 65.5t65.5 158.5t-65.5 158.5t-158.5 65.5zM512 448q-66 0 -113 47t-47 113t47 113t113 47t113 -47t47 -113t-47 -113t-113 -47zM512 384q159 0 271.5 -112.5t112.5 -271.5
h64q0 122 -60 225t-163 163t-225 60t-225 -60t-163 -163t-60 -225h64q0 159 112.5 271.5t271.5 112.5zM96 0zM64 0q0 -13 9.5 -22.5t22.5 -9.5t22.5 9.5t9.5 22.5t-9.5 22.5t-22.5 9.5t-22.5 -9.5t-9.5 -22.5zM928 0zM896 0q0 -13 9.5 -22.5t22.5 -9.5t22.5 9.5t9.5 22.5
t-9.5 22.5t-22.5 9.5t-22.5 -9.5t-9.5 -22.5z" />
    <glyph glyph-name="qianbao" unicode="&#xe645;" 
d="M928 800h-832q-13 0 -22.5 -9.5t-9.5 -22.5v-768q0 -13 9.5 -22.5t22.5 -9.5h832q13 0 22.5 9.5t9.5 22.5v768q0 13 -9.5 22.5t-22.5 9.5zM128 32v704h768v-192h-288q-66 0 -113 -47t-47 -113t47 -113t113 -47h288v-192h-768zM896 480v-192h-288q-40 0 -68 28t-28 68
t28 68t68 28h288zM608 384zM576 384q0 -13 9.5 -22.5t22.5 -9.5t22.5 9.5t9.5 22.5t-9.5 22.5t-22.5 9.5t-22.5 -9.5t-9.5 -22.5zM928 800h-832q-13 0 -22.5 -9.5t-9.5 -22.5v-768q0 -13 9.5 -22.5t22.5 -9.5h832q13 0 22.5 9.5t9.5 22.5v768q0 13 -9.5 22.5t-22.5 9.5z
M128 32v704h768v-192h-288q-66 0 -113 -47t-47 -113t47 -113t113 -47h288v-192h-768zM896 480v-192h-288q-40 0 -68 28t-28 68t28 68t68 28h288zM608 384zM576 384q0 -13 9.5 -22.5t22.5 -9.5t22.5 9.5t9.5 22.5t-9.5 22.5t-22.5 9.5t-22.5 -9.5t-9.5 -22.5z" />
    <glyph glyph-name="tupian" unicode="&#xe646;" 
d="M928 800h-832q-13 0 -22.5 -9.5t-9.5 -22.5v-768q0 -13 9.5 -22.5t22.5 -9.5h832q13 0 22.5 9.5t9.5 22.5v768q0 13 -9.5 22.5t-22.5 9.5zM128 736h768v-627l-329 330q-10 9 -23 9t-23 -9l-73 -74l-201 202q-10 9 -23 9t-23 -9l-73 -74v243zM128 403l96 96l201 -202
q10 -9 23 -9t23 9l73 74l339 -339h-755v371zM696 688q-43 0 -73.5 -30.5t-30.5 -73.5t30.5 -73.5t73.5 -30.5t73.5 30.5t30.5 73.5t-30.5 73.5t-73.5 30.5zM696 528q-23 0 -39.5 16.5t-16.5 39.5t16.5 39.5t39.5 16.5t39.5 -16.5t16.5 -39.5t-16.5 -39.5t-39.5 -16.5z" />
    <glyph glyph-name="xinyongqia" unicode="&#xe647;" 
d="M928 704h-832q-13 0 -22.5 -9.5t-9.5 -22.5v-576q0 -13 9.5 -22.5t22.5 -9.5h832q13 0 22.5 9.5t9.5 22.5v576q0 13 -9.5 22.5t-22.5 9.5zM896 640v-128h-768v128h768zM128 128v320h768v-320h-768zM768 320h-192q-13 0 -22.5 -9.5t-9.5 -22.5t9.5 -22.5t22.5 -9.5h192
q13 0 22.5 9.5t9.5 22.5t-9.5 22.5t-22.5 9.5z" />
    <glyph glyph-name="gengduoyingyong" unicode="&#xe648;" 
d="M448 800h-320q-13 0 -22.5 -9.5t-9.5 -22.5v-320q0 -13 9.5 -22.5t22.5 -9.5h320q13 0 22.5 9.5t9.5 22.5v320q0 13 -9.5 22.5t-22.5 9.5zM416 480h-256v256h256v-256zM896 800h-320q-13 0 -22.5 -9.5t-9.5 -22.5v-320q0 -13 9.5 -22.5t22.5 -9.5h320q13 0 22.5 9.5
t9.5 22.5v320q0 13 -9.5 22.5t-22.5 9.5zM864 480h-256v256h256v-256zM448 352h-320q-13 0 -22.5 -9.5t-9.5 -22.5v-320q0 -13 9.5 -22.5t22.5 -9.5h320q13 0 22.5 9.5t9.5 22.5v320q0 13 -9.5 22.5t-22.5 9.5zM416 32h-256v256h256v-256zM896 352h-320q-13 0 -22.5 -9.5
t-9.5 -22.5v-320q0 -13 9.5 -22.5t22.5 -9.5h320q13 0 22.5 9.5t9.5 22.5v320q0 13 -9.5 22.5t-22.5 9.5zM864 32h-256v256h256v-256z" />
    <glyph glyph-name="guanbi" unicode="&#xe649;" 
d="M512 832q-122 0 -225 -60t-163 -163t-60 -225t60 -225t163 -163t225 -60t225 60t163 163t60 225t-60 225t-163 163t-225 60zM512 0q-159 0 -271.5 112.5t-112.5 271.5t112.5 271.5t271.5 112.5t271.5 -112.5t112.5 -271.5t-112.5 -271.5t-271.5 -112.5zM625 542
l-113 -113l-113 113q-9 9 -22 9q-14 0 -23 -9t-9 -23q0 -13 9 -22l113 -113l-113 -113q-9 -9 -9 -22q0 -14 9 -23t23 -9q13 0 22 9l113 113l113 -113q9 -9 22 -9q14 0 23 9t9 23q0 13 -9 22l-113 113l113 113q9 9 9 22q0 14 -9 23t-23 9q-13 0 -22 -9z" />
    <glyph glyph-name="paizhao" unicode="&#xe64a;" 
d="M928 608h-172l-47 93q-7 14 -23.5 24.5t-33.5 10.5v0h-252v0q-17 0 -33.5 -10.5t-23.5 -24.5l-47 -93h-200q-13 0 -22.5 -9.5t-9.5 -22.5v-512q0 -13 9.5 -22.5t22.5 -9.5h832q13 0 22.5 9.5t9.5 22.5v512q0 13 -9.5 22.5t-22.5 9.5zM896 96h-768v448h188q8 0 16.5 5
t12.5 13l55 110h252l56 -110q4 -8 12.5 -13t16.5 -5h159v-448zM512 544q-80 0 -136 -56t-56 -136t56 -136t136 -56t136 56t56 136t-56 136t-136 56zM512 224q-53 0 -90.5 37.5t-37.5 90.5t37.5 90.5t90.5 37.5t90.5 -37.5t37.5 -90.5t-37.5 -90.5t-90.5 -37.5z" />
    <glyph glyph-name="sousuo" unicode="&#xe64b;" 
d="M916 36l-237 238q37 38 63 103t26 119v0q0 133 -93.5 226.5t-226.5 93.5t-226.5 -93.5t-93.5 -226.5t93.5 -226.5t226.5 -93.5v0q38 0 87 14t81 34l244 -244q11 -12 28 -12t28.5 11.5t11.5 28.5t-12 28zM192 496q0 106 75 181t181 75t181 -75t75 -181t-75 -181t-181 -75
t-181 75t-75 181z" />
    <glyph glyph-name="pinglun" unicode="&#xe64c;" 
d="M320 449zM272 449q0 -20 14 -34t34 -14t34 14t14 34t-14 34t-34 14t-34 -14t-14 -34zM512 449zM464 449q0 -20 14 -34t34 -14t34 14t14 34t-14 34t-34 14t-34 -14t-14 -34zM704 449zM656 449q0 -20 14 -34t34 -14t34 14t14 34t-14 34t-34 14t-34 -14t-14 -34zM928 745
h-832q-13 0 -22.5 -9t-9.5 -23v-504q0 -13 9.5 -22.5t22.5 -9.5h235l136 -136q19 -18 45.5 -18t44.5 18l1 1l126 135h244q13 0 22.5 9.5t9.5 22.5v504q0 14 -9.5 23t-22.5 9zM896 241h-226v0q-14 0 -23 -10l-135 -144l-145 145q-10 9 -23 9v0h-216v440h768v-440z" />
    <glyph glyph-name="youjian" unicode="&#xe64d;" 
d="M928 704h-832q-13 0 -22.5 -9.5t-9.5 -22.5v-576q0 -13 9.5 -22.5t22.5 -9.5h832q13 0 22.5 9.5t9.5 22.5v576q0 13 -9.5 22.5t-22.5 9.5zM846 640l-334 -278v0v0l-334 278h668zM128 128v470l343 -285q18 -15 41 -15t41 15l343 285v-470h-768z" />
    <glyph glyph-name="huiyuan" unicode="&#xe64e;" 
d="M955 431l2 4v0l2 6v0q1 2 1 4v1v1v1v0v2v0v2v0q-1 2 -1 4v1l-2 4l-112 256v0q0 1 -1 2v0q0 1 -1 2v0l-1 1v0v0q0 1 -1 1v1l-0.5 0.5l-0.5 0.5l-1 1v1q-1 0 -2 1v0q-1 1 -2 1v1q-1 0 -1 1h-1l-1 1h-1l-1 1h-1q-1 0 -2 1v0q-1 0 -2 1h-1h-1h-1l-1 1h-1h-1h-1h-2h-608h-2h-1
h-1h-1l-2 -1v0h-2v0q-1 -1 -2 -1v0q-1 -1 -2 -1h-1l-1 -1h-1q0 -1 -1 -1h-1q0 -1 -1 -1l-1 -1l-1 -1v0q-1 -1 -2 -1v-1l-1 -1l-0.5 -0.5l-0.5 -0.5l-1 -1v-1h-0.5h-0.5v-1v0q-1 -1 -1 -2v0l-0.5 -0.5t-0.5 -1v-0.5v0l-112 -256l-2 -4v-1q0 -2 -1 -4v0v-2v0v-1.5v-0.5v-1v-1
v-1q0 -2 1 -4v0q0 -3 2 -6v0l2 -4v0q1 -2 3 -4v0l416 -480v-1h1q0 -1 1 -2h1q0 -1 1 -1v0l2 -2v0q1 0 2 -1v0q1 0 2 -1v0q1 0 2 -1h1h1l1 -1h1h1q1 0 2 -1v0h2h1h0.5h1.5h2h1h1h1q1 1 2 1v0h2v1h2v0q1 1 2 1h1l1 1h1q1 1 2 1v0q0 1 1 2h1q0 1 1 1v0l2 2v0q0 1 1 1l416 480v0
q1 2 3 4v0zM207 622l59 -142h-121zM379 480l133 172l133 -172h-266zM662 416l-150 -364l-150 364h300zM292 416l115 -278l-241 278h126zM732 416h126l-241 -278zM758 480l59 142l62 -142h-121zM702 511l-125 161h191zM447 672l-125 -161l-66 161h191z" />
    <glyph glyph-name="bianji" unicode="&#xe64f;" 
d="M307 224l590 591l46 -46l-591 -590zM896 608q-13 0 -22.5 -9.5t-9.5 -22.5v-576h-704v768h544q13 0 22.5 9.5t9.5 22.5t-9.5 22.5t-22.5 9.5h-576q-13 0 -22.5 -9.5t-9.5 -22.5v-832q0 -13 9.5 -22.5t22.5 -9.5h768q13 0 22.5 9.5t9.5 22.5v608q0 13 -9.5 22.5t-22.5 9.5
zM307 224l590 591l46 -46l-591 -590zM896 608q-13 0 -22.5 -9.5t-9.5 -22.5v-576h-704v768h544q13 0 22.5 9.5t9.5 22.5t-9.5 22.5t-22.5 9.5h-576q-13 0 -22.5 -9.5t-9.5 -22.5v-832q0 -13 9.5 -22.5t22.5 -9.5h768q13 0 22.5 9.5t9.5 22.5v608q0 13 -9.5 22.5t-22.5 9.5z
" />
    <glyph glyph-name="xiai" unicode="&#xe650;" 
d="M765 -64q-17 0 -33 9l-215 126l-215 -126q-15 -9 -33 -9q-27 0 -46.5 19.5t-19.5 46.5q0 7 2 14l52 243l-185 166q-9 8 -15.5 22.5t-6.5 26.5q0 25 17 44t42 22l248 25l100 228q7 16 24.5 27.5t35.5 11.5t35.5 -11.5t24.5 -27.5l101 -228l247 -25q25 -3 42.5 -22
t17.5 -44q0 -12 -6.5 -26.5t-15.5 -22.5l-186 -166l53 -243q1 -7 1 -14q0 -27 -19 -46.5t-47 -19.5v0zM517 768q-1 0 -1 -1l-108 -245q-3 -7 -11 -12.5t-15 -6.5l-267 -27q-1 0 -1 -1v-1v-1l200 -178q11 -10 11 -24q0 -4 -1 -7l-57 -262v0q0 -2 2 -2l1 1l231 134q7 5 16 5
t16 -5l231 -134l1 -1q2 0 2 2v0l-57 262v7q0 14 10 24l200 178q1 0 1 1t-1 1q0 1 -1 1l-266 27q-8 1 -15.5 6.5t-10.5 12.5l-108 245q-1 1 -2 1z" />
    <glyph glyph-name="tongxunlu" unicode="&#xe651;" 
d="M864 -64h-688q-26 0 -45 19t-19 45v112q0 13 9.5 22.5t22.5 9.5t22.5 -9.5t9.5 -22.5v-112h688v768h-688v-144q0 -13 -9.5 -22.5t-22.5 -9.5t-22.5 9.5t-9.5 22.5v144q0 26 19 45t45 19h688q26 0 45 -19t19 -45v-768q0 -26 -19 -45t-45 -19zM176 208h-64q-13 0 -22.5 9.5
t-9.5 22.5t9.5 22.5t22.5 9.5h64q13 0 22.5 -9.5t9.5 -22.5t-9.5 -22.5t-22.5 -9.5zM176 336h-64q-13 0 -22.5 9.5t-9.5 22.5t9.5 22.5t22.5 9.5h64q13 0 22.5 -9.5t9.5 -22.5t-9.5 -22.5t-22.5 -9.5zM176 464h-64q-13 0 -22.5 9.5t-9.5 22.5t9.5 22.5t22.5 9.5h64
q13 0 22.5 -9.5t9.5 -22.5t-9.5 -22.5t-22.5 -9.5zM512 320q-66 0 -113 47t-47 113t47 113t113 47t113 -47t47 -113t-47 -113t-113 -47zM512 576q-40 0 -68 -28t-28 -68t28 -68t68 -28t68 28t28 68t-28 68t-68 28zM704 128q-13 0 -22.5 9.5t-9.5 22.5q0 66 -47 113t-113 47
t-113 -47t-47 -113q0 -13 -9.5 -22.5t-22.5 -9.5t-22.5 9.5t-9.5 22.5q0 93 65.5 158.5t158.5 65.5t158.5 -65.5t65.5 -158.5q0 -13 -9.5 -22.5t-22.5 -9.5zM864 -64h-688q-26 0 -45 19t-19 45v112q0 13 9.5 22.5t22.5 9.5t22.5 -9.5t9.5 -22.5v-112h688v768h-688v-144
q0 -13 -9.5 -22.5t-22.5 -9.5t-22.5 9.5t-9.5 22.5v144q0 26 19 45t45 19h688q26 0 45 -19t19 -45v-768q0 -26 -19 -45t-45 -19zM176 208h-64q-13 0 -22.5 9.5t-9.5 22.5t9.5 22.5t22.5 9.5h64q13 0 22.5 -9.5t9.5 -22.5t-9.5 -22.5t-22.5 -9.5zM176 336h-64
q-13 0 -22.5 9.5t-9.5 22.5t9.5 22.5t22.5 9.5h64q13 0 22.5 -9.5t9.5 -22.5t-9.5 -22.5t-22.5 -9.5zM176 464h-64q-13 0 -22.5 9.5t-9.5 22.5t9.5 22.5t22.5 9.5h64q13 0 22.5 -9.5t9.5 -22.5t-9.5 -22.5t-22.5 -9.5zM512 320q-66 0 -113 47t-47 113t47 113t113 47t113 -47
t47 -113t-47 -113t-113 -47zM512 576q-40 0 -68 -28t-28 -68t28 -68t68 -28t68 28t28 68t-28 68t-68 28zM704 128q-13 0 -22.5 9.5t-9.5 22.5q0 66 -47 113t-113 47t-113 -47t-47 -113q0 -13 -9.5 -22.5t-22.5 -9.5t-22.5 9.5t-9.5 22.5q0 93 65.5 158.5t158.5 65.5
t158.5 -65.5t65.5 -158.5q0 -13 -9.5 -22.5t-22.5 -9.5z" />
    <glyph glyph-name="xiazai" unicode="&#xe652;" 
d="M752 176h-112q-13 0 -22.5 9.5t-9.5 22.5t9.5 22.5t22.5 9.5h112q60 0 102 42t42 102v0q0 55 -39 97t-93 47q-11 0 -19.5 8.5t-10.5 19.5q-10 84 -73.5 140t-148.5 56t-148.5 -56t-73.5 -140q-2 -11 -10.5 -19.5t-19.5 -8.5q-54 -5 -93 -47t-39 -97v0q0 -60 42 -102
t102 -42h112q13 0 22.5 -9.5t9.5 -22.5t-9.5 -22.5t-22.5 -9.5h-112q-86 0 -147 61t-61 147q0 70 48.5 130t117.5 74q21 99 100.5 163.5t181.5 64.5t181.5 -64.5t100.5 -163.5q69 -14 117.5 -74t48.5 -130q0 -86 -61 -147t-147 -61zM663 89l-128 -128q-10 -9 -23 -9t-23 9
l-128 128q-10 10 -10 23q0 14 9.5 23t22.5 9q14 0 23 -9l74 -74v339q0 13 9.5 22.5t22.5 9.5t22.5 -9.5t9.5 -22.5v-339l74 74q9 9 22.5 9t22.5 -9.5t9 -22.5t-9 -23zM752 176h-112q-13 0 -22.5 9.5t-9.5 22.5t9.5 22.5t22.5 9.5h112q60 0 102 42t42 102v0q0 55 -39 97
t-93 47q-11 0 -19.5 8.5t-10.5 19.5q-10 84 -73.5 140t-148.5 56t-148.5 -56t-73.5 -140q-2 -11 -10.5 -19.5t-19.5 -8.5q-54 -5 -93 -47t-39 -97v0q0 -60 42 -102t102 -42h112q13 0 22.5 -9.5t9.5 -22.5t-9.5 -22.5t-22.5 -9.5h-112q-86 0 -147 61t-61 147q0 70 48.5 130
t117.5 74q21 99 100.5 163.5t181.5 64.5t181.5 -64.5t100.5 -163.5q69 -14 117.5 -74t48.5 -130q0 -86 -61 -147t-147 -61zM663 89l-128 -128q-10 -9 -23 -9t-23 9l-128 128q-10 10 -10 23q0 14 9.5 23t22.5 9q14 0 23 -9l74 -74v339q0 13 9.5 22.5t22.5 9.5t22.5 -9.5
t9.5 -22.5v-339l74 74q9 9 22.5 9t22.5 -9.5t9 -22.5t-9 -23z" />
    <glyph glyph-name="fanhui" unicode="&#xe653;" 
d="M736 -64v0q-13 0 -22 9l-448 416q-10 9 -10 23t10 23l448 416q9 9 22 9t22.5 -9.5t9.5 -22.5q0 -14 -10 -23l-423 -393l423 -393q10 -9 10 -23q0 -13 -9.5 -22.5t-22.5 -9.5z" />
    <glyph glyph-name="gouwuche" unicode="&#xe654;" 
d="M880 136v0l-576 3v0q-24 0 -42.5 17t-21.5 40l-61 489l-57 12q-11 2 -18.5 11t-7.5 20q0 13 9.5 22.5t22.5 9.5q3 0 6 -1l58 -11q18 -4 33 -20t18 -35l61 -489v-1v0l576 -3q13 0 22.5 -9.5t9.5 -22.5t-9.5 -22.5t-22.5 -9.5v0zM400 280v0q-13 0 -22.5 9.5t-9.5 22.5
q0 12 8.5 21.5t21.5 10.5l434 32v1l32 271h-544q-13 0 -22.5 9.5t-9.5 22.5t9.5 22.5t22.5 9.5h544v0q26 0 45 -19t19 -45v-6v-1l-32 -271q-2 -23 -19.5 -39.5t-39.5 -18.5l-435 -32h-2zM896 645zM368 56zM320 56q0 -20 14 -34t34 -14t34 14t14 34t-14 34t-34 14t-34 -14
t-14 -34zM816 56zM768 56q0 -20 14 -34t34 -14t34 14t14 34t-14 34t-34 14t-34 -14t-14 -34z" />
    <glyph glyph-name="saoyisao" unicode="&#xe655;" 
d="M128 480q13 0 22.5 9.5t9.5 22.5v224h224q13 0 22.5 9.5t9.5 22.5t-9.5 22.5t-22.5 9.5h-224q-26 0 -45 -19t-19 -45v-224q0 -13 9.5 -22.5t22.5 -9.5zM384 32h-224v224q0 13 -9.5 22.5t-22.5 9.5t-22.5 -9.5t-9.5 -22.5v-224q0 -26 19 -45t45 -19h224q13 0 22.5 9.5
t9.5 22.5t-9.5 22.5t-22.5 9.5zM896 288q-13 0 -22.5 -9.5t-9.5 -22.5v-224h-224q-13 0 -22.5 -9.5t-9.5 -22.5t9.5 -22.5t22.5 -9.5h224q26 0 45 19t19 45v224q0 13 -9.5 22.5t-22.5 9.5zM864 800h-224q-13 0 -22.5 -9.5t-9.5 -22.5t9.5 -22.5t22.5 -9.5h224v-224
q0 -13 9.5 -22.5t22.5 -9.5t22.5 9.5t9.5 22.5v224q0 26 -19 45t-45 19zM896 416h-768q-13 0 -22.5 -9.5t-9.5 -22.5t9.5 -22.5t22.5 -9.5h768q13 0 22.5 9.5t9.5 22.5t-9.5 22.5t-22.5 9.5z" />
    <glyph glyph-name="shangchuan" unicode="&#xe656;" 
d="M663 351l-128 128q-10 9 -23 9t-23 -9l-128 -128q-9 -10 -9 -23q0 -14 9 -23t23 -9q13 0 23 9l73 74v-355q0 -13 9.5 -22.5t22.5 -9.5t22.5 9.5t9.5 22.5v355l73 -74q10 -9 23 -9q14 0 23 9t9 23q0 13 -9 23zM752 136h-112q-13 0 -22.5 9.5t-9.5 22.5t9.5 22.5t22.5 9.5
h112q60 0 102 42t42 102v0q0 55 -39 97t-93 47q-11 0 -19.5 8.5t-10.5 19.5q-10 84 -73.5 140t-148.5 56t-148.5 -56t-73.5 -140q-2 -11 -10.5 -19.5t-19.5 -8.5q-54 -5 -93 -47t-39 -97v0q0 -60 42 -102t102 -42h112q13 0 22.5 -9.5t9.5 -22.5t-9.5 -22.5t-22.5 -9.5h-112
q-86 0 -147 61t-61 147q0 70 48.5 130t117.5 74q21 99 100.5 163.5t181.5 64.5t181.5 -64.5t100.5 -163.5q69 -14 117.5 -74t48.5 -130q0 -86 -61 -147t-147 -61z" />
    <glyph glyph-name="shanchu" unicode="&#xe657;" 
d="M896 768h-352v16q0 13 -9.5 22.5t-22.5 9.5t-22.5 -9.5t-9.5 -22.5v-16h-352q-13 0 -22.5 -9.5t-9.5 -22.5t9.5 -22.5t22.5 -9.5h768q13 0 22.5 9.5t9.5 22.5t-9.5 22.5t-22.5 9.5zM800 640q-13 0 -22.5 -9.5t-9.5 -22.5v-592h-512v592q0 13 -9.5 22.5t-22.5 9.5
t-22.5 -9.5t-9.5 -22.5v-624q0 -13 9.5 -22.5t22.5 -9.5h576q13 0 22.5 9.5t9.5 22.5v624q0 13 -9.5 22.5t-22.5 9.5zM416 112v480q0 13 -9.5 22.5t-22.5 9.5t-22.5 -9.5t-9.5 -22.5v-480q0 -13 9.5 -22.5t22.5 -9.5t22.5 9.5t9.5 22.5zM544 112v480q0 13 -9.5 22.5
t-22.5 9.5t-22.5 -9.5t-9.5 -22.5v-480q0 -13 9.5 -22.5t22.5 -9.5t22.5 9.5t9.5 22.5zM672 112v480q0 13 -9.5 22.5t-22.5 9.5t-22.5 -9.5t-9.5 -22.5v-480q0 -13 9.5 -22.5t22.5 -9.5t22.5 9.5t9.5 22.5z" />
    <glyph glyph-name="shaixuan" unicode="&#xe658;" 
d="M448 -32q-27 0 -45.5 19t-18.5 45v320l-302 327q-18 19 -18 44q0 26 19 45t45 19v0l768 -6q27 0 45.5 -19t18.5 -45q0 -25 -18 -44l-302 -321v-256q0 -18 -15 -27l-146 -93q-1 0 -2 -1q-14 -7 -29 -7zM128 723v0l311 -336q9 -9 9 -22v-333l128 82v251v0q0 13 9 22
l311 330v0v0zM896 717z" />
    <glyph glyph-name="shuaxin" unicode="&#xe659;" 
d="M928 416q-13 0 -22.5 -9.5t-9.5 -22.5q0 -159 -112.5 -271.5t-271.5 -112.5t-271.5 112.5t-112.5 271.5t112.5 271.5t271.5 112.5q91 0 192 -60q51 -30 90 -68h-58q-13 0 -22.5 -9.5t-9.5 -22.5t9.5 -22.5t22.5 -9.5h128q13 0 22.5 9.5t9.5 22.5v128q0 13 -9.5 22.5
t-22.5 9.5t-22.5 -9.5t-9.5 -22.5v-44q-44 41 -96 72q-51 30 -107 48q-61 20 -117 20q-91 0 -174 -35.5t-143 -95.5t-95.5 -143t-35.5 -174q0 -123 80 -244t194 -169q34 -14 85.5 -24.5t88.5 -10.5q91 0 174 35.5t143 95.5t95.5 143t35.5 174v0q0 13 -9.5 22.5t-22.5 9.5z
" />
    <glyph glyph-name="shijian" unicode="&#xe65a;" 
d="M512 832q-122 0 -225 -60t-163 -163t-60 -225t60 -225t163 -163t225 -60t225 60t163 163t60 225t-60 225t-163 163t-225 60zM512 0q-159 0 -271.5 112.5t-112.5 271.5t112.5 271.5t271.5 112.5t271.5 -112.5t112.5 -271.5t-112.5 -271.5t-271.5 -112.5zM768 352
q0 13 -9.5 22.5t-22.5 9.5h-224v224q0 13 -9.5 22.5t-22.5 9.5t-22.5 -9.5t-9.5 -22.5v-256q0 -13 9.5 -22.5t22.5 -9.5h256q13 0 22.5 9.5t9.5 22.5z" />
    <glyph glyph-name="jinru" unicode="&#xe65b;" 
d="M288 -64v0q13 0 22 9l448 416q10 9 10 23t-10 23l-448 416q-9 9 -22 9t-22.5 -9.5t-9.5 -22.5q0 -14 10 -23l423 -393l-423 -393q-10 -9 -10 -23q0 -13 9.5 -22.5t22.5 -9.5z" />
    <glyph glyph-name="jianshao" unicode="&#xe65c;" 
d="M512 832q-122 0 -225 -60t-163 -163t-60 -225t60 -225t163 -163t225 -60t225 60t163 163t60 225t-60 225t-163 163t-225 60zM512 0q-159 0 -271.5 112.5t-112.5 271.5t112.5 271.5t271.5 112.5t271.5 -112.5t112.5 -271.5t-112.5 -271.5t-271.5 -112.5zM704 416h-384
q-13 0 -22.5 -9.5t-9.5 -22.5t9.5 -22.5t22.5 -9.5h384q13 0 22.5 9.5t9.5 22.5t-9.5 22.5t-22.5 9.5z" />
    <glyph glyph-name="lishijilu" unicode="&#xe65d;" 
d="M960 385q0 13 -9.5 22.5t-22.5 9.5t-22.5 -9.5t-9.5 -22.5v0v-1q0 -159 -112.5 -271.5t-271.5 -112.5t-271.5 112.5t-112.5 271.5t112.5 271.5t271.5 112.5q95 0 177 -43t135 -117h-56q-13 0 -22.5 -9.5t-9.5 -22.5t9.5 -22.5t22.5 -9.5h112q13 0 22.5 9.5t9.5 22.5v144
q0 13 -9.5 22.5t-22.5 9.5t-22.5 -9.5t-9.5 -22.5v-40q-63 71 -150 111.5t-186 40.5q-122 0 -225 -60t-163 -163t-60 -225t60 -225t163 -163t225 -60t225 60t163 163t60 225v1zM720 352q0 13 -9.5 22.5t-22.5 9.5h-176v176q0 13 -9.5 22.5t-22.5 9.5t-22.5 -9.5t-9.5 -22.5
v-208q0 -13 9.5 -22.5t22.5 -9.5h208q13 0 22.5 9.5t9.5 22.5z" />
    <glyph glyph-name="tianjia" unicode="&#xe65e;" 
d="M512 832q-122 0 -225 -60t-163 -163t-60 -225t60 -225t163 -163t225 -60t225 60t163 163t60 225t-60 225t-163 163t-225 60zM512 0q-159 0 -271.5 112.5t-112.5 271.5t112.5 271.5t271.5 112.5t271.5 -112.5t112.5 -271.5t-112.5 -271.5t-271.5 -112.5zM704 416h-160v160
q0 13 -9.5 22.5t-22.5 9.5t-22.5 -9.5t-9.5 -22.5v-160h-160q-13 0 -22.5 -9.5t-9.5 -22.5t9.5 -22.5t22.5 -9.5h160v-160q0 -13 9.5 -22.5t22.5 -9.5t22.5 9.5t9.5 22.5v160h160q13 0 22.5 9.5t9.5 22.5t-9.5 22.5t-22.5 9.5z" />
    <glyph glyph-name="tuichu" unicode="&#xe65f;" 
d="M512 832q-13 0 -22.5 -9.5t-9.5 -22.5v-416q0 -13 9.5 -22.5t22.5 -9.5t22.5 9.5t9.5 22.5v416q0 13 -9.5 22.5t-22.5 9.5zM683 798q-6 2 -12 2q-13 0 -22.5 -9t-9.5 -23q0 -8 6 -17t14 -12q106 -44 171.5 -140.5t65.5 -214.5q0 -159 -112.5 -271.5t-271.5 -112.5
t-271.5 112.5t-112.5 271.5q0 118 65.5 214.5t171.5 140.5q8 3 14 12t6 17q0 14 -9.5 23t-22.5 9q-6 0 -12 -2q-124 -51 -200.5 -163.5t-76.5 -250.5q0 -122 60 -225t163 -163t225 -60t225 60t163 163t60 225q0 138 -76.5 250.5t-200.5 163.5z" />
    <glyph glyph-name="yuyin" unicode="&#xe660;" 
d="M512 224q79 0 135.5 56.5t56.5 135.5v224q0 79 -56.5 135.5t-135.5 56.5t-135.5 -56.5t-56.5 -135.5v-224q0 -79 56.5 -135.5t135.5 -56.5zM384 640q0 53 37.5 90.5t90.5 37.5t90.5 -37.5t37.5 -90.5v-224q0 -53 -37.5 -90.5t-90.5 -37.5t-90.5 37.5t-37.5 90.5v224z
M800 0h-256v98q119 12 203.5 105t84.5 213q0 13 -9.5 22.5t-22.5 9.5t-22.5 -9.5t-9.5 -22.5q0 -106 -75 -181t-181 -75t-181 75t-75 181q0 13 -9.5 22.5t-22.5 9.5t-22.5 -9.5t-9.5 -22.5q0 -120 84.5 -213t203.5 -105v-98h-256q-13 0 -22.5 -9.5t-9.5 -22.5t9.5 -22.5
t22.5 -9.5h576q13 0 22.5 9.5t9.5 22.5t-9.5 22.5t-22.5 9.5z" />
    <glyph glyph-name="shoucang" unicode="&#xe661;" 
d="M512 -27v0q-13 0 -23 10l-343 343q-33 33 -56.5 90t-23.5 104q0 114 80.5 194.5t194.5 80.5q39 0 89.5 -18t81.5 -43q31 25 81.5 43t89.5 18q114 0 194.5 -80.5t80.5 -194.5q0 -47 -23.5 -104t-56.5 -90l-343 -343q-10 -10 -23 -10v0zM340 731v0q-87 0 -148.5 -62
t-61.5 -149q0 -36 18 -79.5t44 -69.5l320 -320l320 320q26 26 44 69.5t18 79.5q0 87 -61.5 149t-148.5 62q-37 0 -80.5 -18.5t-68.5 -43.5q-10 -9 -23 -9t-23 9q-25 25 -68.5 43.5t-79.5 18.5h-1zM512 -27v0q-13 0 -23 10l-343 343q-33 33 -56.5 90t-23.5 104
q0 114 80.5 194.5t194.5 80.5q39 0 89.5 -18t81.5 -43q31 25 81.5 43t89.5 18q114 0 194.5 -80.5t80.5 -194.5q0 -47 -23.5 -104t-56.5 -90l-343 -343q-10 -10 -23 -10v0zM340 731v0q-87 0 -148.5 -62t-61.5 -149q0 -36 18 -79.5t44 -69.5l320 -320l320 320q26 26 44 69.5
t18 79.5q0 87 -61.5 149t-148.5 62q-37 0 -80.5 -18.5t-68.5 -43.5q-10 -9 -23 -9t-23 9q-25 25 -68.5 43.5t-79.5 18.5h-1z" />
    <glyph glyph-name="shezhi" unicode="&#xe662;" 
d="M556 -64h-88v0q-18 0 -35.5 11.5t-23.5 28.5q-12 28 -23 62q-15 6 -30 13q-31 -17 -60 -29q-11 -5 -24 -5q-27 0 -46 19l-62 62q-19 19 -19 46q0 12 5 24q12 29 28 60l-12 30q-34 11 -62 23q-17 6 -28.5 23.5t-11.5 35.5v0v88v0q0 18 11.5 35.5t28.5 23.5q28 12 62 23
q6 15 13 30q-17 31 -29 60q-5 11 -5 24q0 27 19 46l62 62q19 19 46 19q12 0 24 -5q29 -12 60 -28l30 12q11 34 23 62q6 17 23.5 28.5t35.5 11.5v0h88v0q18 0 35.5 -11.5t23.5 -28.5q12 -28 23 -62q15 -6 30 -13q31 17 60 29q11 5 24 5q27 0 46 -19l62 -62q19 -19 19 -46
q0 -12 -5 -24q-12 -29 -28 -60l12 -30q34 -11 62 -23q17 -6 28.5 -23.5t11.5 -35.5v0v-88v0q0 -18 -11.5 -35.5t-28.5 -23.5q-28 -12 -62 -23q-6 -15 -13 -30q17 -31 29 -60q5 -11 5 -24q0 -27 -19 -46l-62 -62q-19 -19 -46 -19q-12 0 -24 5q-29 12 -60 28l-30 -12
q-11 -34 -23 -62q-6 -17 -23.5 -28.5t-35.5 -11.5v0zM356 118v0q8 0 15 -3q24 -13 51 -21q6 -2 12.5 -8.5t8.5 -13.5q12 -40 25 -72h88q13 33 25 72q2 7 8.5 13.5t12.5 8.5q27 8 51 21q7 4 15 4t16 -4q36 -20 68 -34l63 63q-14 32 -34 68q-3 8 -3 16t3 15q13 24 21 51
q2 6 8.5 12.5t13.5 8.5q40 12 72 25v88q-33 13 -72 25q-7 2 -13.5 8.5t-8.5 12.5q-8 27 -21 51q-4 7 -4 15t4 16q20 36 34 68l-63 63q-32 -14 -68 -34q-8 -3 -16 -3t-15 3q-24 13 -51 21q-6 2 -12.5 8.5t-8.5 13.5q-12 40 -25 72h-88q-14 -33 -25 -72q-2 -7 -8.5 -13.5
t-12.5 -8.5q-27 -8 -51 -21q-7 -4 -15 -4t-16 4q-36 20 -68 34l-63 -63q14 -32 34 -68q3 -8 3 -16t-3 -15q-13 -24 -21 -51q-2 -6 -8.5 -12.5t-13.5 -8.5q-40 -12 -72 -25v-88q33 -13 72 -25q7 -2 13.5 -8.5t8.5 -13.5q8 -26 21 -50q4 -7 4 -15q0 -9 -5 -16q-19 -36 -33 -68
l63 -63q32 14 68 34q8 3 16 3zM556 -64h-88v0q-18 0 -35.5 11.5t-23.5 28.5q-12 28 -23 62q-15 6 -30 13q-31 -17 -60 -29q-11 -5 -24 -5q-27 0 -46 19l-62 62q-19 19 -19 46q0 12 5 24q12 29 28 60l-12 30q-34 11 -62 23q-17 6 -28.5 23.5t-11.5 35.5v0v88v0
q0 18 11.5 35.5t28.5 23.5q28 12 62 23q6 15 13 30q-17 31 -29 60q-5 11 -5 24q0 27 19 46l62 62q19 19 46 19q12 0 24 -5q29 -12 60 -28l30 12q11 34 23 62q6 17 23.5 28.5t35.5 11.5v0h88v0q18 0 35.5 -11.5t23.5 -28.5q12 -28 23 -62q15 -6 30 -13q31 17 60 29q11 5 24 5
q27 0 46 -19l62 -62q19 -19 19 -46q0 -12 -5 -24q-12 -29 -28 -60l12 -30q34 -11 62 -23q17 -6 28.5 -23.5t11.5 -35.5v0v-88v0q0 -18 -11.5 -35.5t-28.5 -23.5q-28 -12 -62 -23q-6 -15 -13 -30q17 -31 29 -60q5 -11 5 -24q0 -27 -19 -46l-62 -62q-19 -19 -46 -19
q-12 0 -24 5q-29 12 -60 28l-30 -12q-11 -34 -23 -62q-6 -17 -23.5 -28.5t-35.5 -11.5v0zM356 118v0q8 0 15 -3q24 -13 51 -21q6 -2 12.5 -8.5t8.5 -13.5q12 -40 25 -72h88q13 33 25 72q2 7 8.5 13.5t12.5 8.5q27 8 51 21q7 4 15 4t16 -4q36 -20 68 -34l63 63q-14 32 -34 68
q-3 8 -3 16t3 15q13 24 21 51q2 6 8.5 12.5t13.5 8.5q40 12 72 25v88q-33 13 -72 25q-7 2 -13.5 8.5t-8.5 12.5q-8 27 -21 51q-4 7 -4 15t4 16q20 36 34 68l-63 63q-32 -14 -68 -34q-8 -3 -16 -3t-15 3q-24 13 -51 21q-6 2 -12.5 8.5t-8.5 13.5q-12 40 -25 72h-88
q-14 -33 -25 -72q-2 -7 -8.5 -13.5t-12.5 -8.5q-27 -8 -51 -21q-7 -4 -15 -4t-16 4q-36 20 -68 34l-63 -63q14 -32 34 -68q3 -8 3 -16t-3 -15q-13 -24 -21 -51q-2 -6 -8.5 -12.5t-13.5 -8.5q-40 -12 -72 -25v-88q33 -13 72 -25q7 -2 13.5 -8.5t8.5 -13.5q8 -26 21 -50
q4 -7 4 -15q0 -9 -5 -16q-19 -36 -33 -68l63 -63q32 14 68 34q8 3 16 3zM512 192q-79 0 -135.5 56.5t-56.5 135.5t56.5 135.5t135.5 56.5t135.5 -56.5t56.5 -135.5t-56.5 -135.5t-135.5 -56.5zM512 512q-53 0 -90.5 -37.5t-37.5 -90.5t37.5 -90.5t90.5 -37.5t90.5 37.5
t37.5 90.5t-37.5 90.5t-90.5 37.5z" />
    <glyph glyph-name="weizhi" unicode="&#xe663;" 
d="M512 608q-66 0 -113 -47t-47 -113t47 -113t113 -47t113 47t47 113t-47 113t-113 47zM512 352q-40 0 -68 28t-28 68t28 68t68 28t68 -28t28 -68t-28 -68t-68 -28zM511.5 832q-104.5 0 -193.5 -52t-140 -141.5t-50 -193.5q0 -68 35.5 -149t85.5 -128h-1l242 -227
q9 -9 21.5 -9t21.5 9l240 226q51 47 87 129t36 152v0q0 104 -51.5 192.5t-140 140t-193 51.5zM748 232q-16 -17 -34 -32l-202 -192l-213 201q-7 6 -14 13q-38 39 -65.5 105t-27.5 121v0q0 133 93.5 226.5t226.5 93.5t226.5 -93.5t93.5 -226.5v0q0 -52 -24.5 -115t-59.5 -101
z" />
    <glyph glyph-name="jinbi" unicode="&#xe619;" 
d="M510 -122q-103 0 -197.5 40.5t-162.5 108.5t-108.5 162.5t-40.5 198t40.5 197.5t108.5 162t162.5 108.5t197.5 40.5t197.5 -40.5t162.5 -108.5t108.5 -162t40.5 -197.5t-40.5 -198t-108.5 -162.5t-162.5 -108.5t-197.5 -40.5zM510 789q-109 0 -201.5 -54t-146.5 -146.5
t-54 -201.5t54 -201.5t146.5 -146.5t201.5 -54t201.5 54t146 146.5t53.5 201.5t-53.5 201.5t-146 146.5t-201.5 54zM509 95l-278 285l285 278l278 -285zM345 378l166 -169l169 165l-165 170z" />
    <glyph glyph-name="shoucang1" unicode="&#xe61a;" horiz-adv-x="1028" 
d="M0 896h230v-95h-230v95zM230 801h-230v-508h804v508h-574zM719 378h-634v338h634v-338zM389 653l29 -60l66 -9l-48 -47l12 -65l-59 31l-59 -31l11 65l-48 47l66 9z" />
    <glyph glyph-name="wo" unicode="&#xe61b;" 
d="M763 636v-7q0 -104 -73.5 -177.5t-177 -73.5t-177 73.5t-73.5 177.5v7q3 101 76.5 172.5t174.5 71.5t174.5 -71.5t75.5 -172.5zM1024 -128h-108q0 109 -54 202t-147 147t-202.5 54t-202.5 -54t-147 -147t-54 -202h-109q0 104 41 198.5t109.5 163t163 109t198.5 40.5
t199 -40.5t163.5 -109t109 -163t40.5 -198.5z" />
    <glyph glyph-name="gongju" unicode="&#xe61c;" 
d="M430 896h169v-93h-169v93zM95 687l119 119l65 -65l-119 -120zM5 470h93v-168h-93v168zM214 -34l-119 119l65 66l120 -119zM431 -31h168v-92h-168v92zM935 86l-120 -120l-65 66l119 119zM931 471h93v-169h-93v169zM815 806l119 -119l-65 -65l-119 119zM515 -48
q-118 0 -218 58.5t-158 158.5t-58 217q0 118 58 218t158 158t218 58q117 0 217 -58t158.5 -158t58.5 -218q0 -88 -34.5 -168.5t-92.5 -138.5t-138.5 -92.5t-168.5 -34.5zM514.5 712q-88.5 0 -163.5 -43.5t-118.5 -118.5t-43.5 -163.5t43.5 -163.5t118.5 -118.5t164 -43.5
q88 0 163 43.5t118.5 118.5t43.5 163.5t-43.5 163.5t-118.5 118.5t-163.5 43.5z" />
    <glyph glyph-name="xiaoxi1" unicode="&#xe61d;" horiz-adv-x="1028" 
d="M91 1l-91 158l193 6zM1028 158h-1028v687h1028v-687v0zM109 266h811v471h-811v-471zM193 620h636v-81h-636v81zM387 488h449v-81h-449v81z" />
    <glyph glyph-name="xinjianyaoqing" unicode="&#xe61e;" 
d="M38 763l486 -217l487 203zM1024 127h-1024v710h1024v-710zM108 234h808v495h-808v-495z" />
  </font>
</defs>
</svg>
